<?xml version="1.0" encoding="UTF-8"?><svg id="Warstwa_2" xmlns="http://www.w3.org/2000/svg" viewBox="0 0 1217.06 232.2"><defs><style>.cls-1{fill:#f40039;}.cls-1,.cls-2{fill-rule:evenodd;stroke-width:0px;}.cls-2{fill:#fff;}</style></defs><g id="Warstwa_1-2"><path class="cls-1" d="M1214.36,74.48c-.75,2.85-1.46,5.81-2.14,8.89-.67,3.08-1.24,5.81-1.69,8.21-1.5.15-3.64.26-6.41.34-2.78.08-5.74.15-8.89.23-3.15.08-6.34.11-9.56.11h-8.44l-7.87,40.27c4.65-.3,9-.52,13.05-.67,3.3-.15,6.67-.23,10.12-.23s6-.07,7.65-.23c-.6,4.2-1.16,8.33-1.69,12.38-.53,4.05-1.16,8.18-1.91,12.37-1.5.15-3.94.26-7.31.34-3.38.08-6.79.19-10.24.34-3.9.15-8.18.3-12.83.45l-7.65,41.4,32.85-5.18-2.25,25.65-72.67,11.25,29.47-159.97,71.1-6.07c-1.05,3.3-1.95,6.68-2.7,10.13h0ZM1128.52,112.05c-2.33,8.55-4.58,17.25-6.75,26.1-2.18,8.85-4.31,17.4-6.41,25.65-4.8,19.35-9.6,39.23-14.4,59.63l-58.28,8.77c1.95-21,3.75-41.62,5.4-61.87.75-8.4,1.46-17.25,2.14-26.55.67-9.3,1.27-18.49,1.8-27.56.52-9.07.94-17.85,1.24-26.32.3-8.47.52-16.24.68-23.29,3.6,0,7.46-.07,11.59-.22,4.12-.15,7.87-.3,11.25-.45,3.38-.15,7.46-.45,12.26-.9-1.65,17.4-3.08,31.69-4.28,42.86-1.2,11.18-2.14,20.25-2.81,27.22-.68,6.98-1.28,13.69-1.8,20.14-.53,6.45-1.09,12.45-1.69,18-.6,5.55-1.12,10.28-1.58,14.17h4.05l25.2-119.7c4.05-.15,8.17-.37,12.37-.67,3.75-.3,7.69-.52,11.81-.67,4.12-.15,7.91-.45,11.36-.9-2.1,6.6-4.24,13.88-6.41,21.82-2.18,7.95-4.43,16.2-6.75,24.75h0ZM1030.08,173.14c-4.35,9.08-9.41,17.18-15.19,24.3-5.78,7.13-11.81,13.2-18.11,18.23-6.3,5.03-12.68,8.85-19.13,11.47-6.45,2.63-12.6,3.94-18.45,3.94-4.95,0-9.45-.94-13.5-2.81-4.05-1.87-7.58-4.65-10.58-8.33-3-3.67-5.36-8.4-7.09-14.17-1.73-5.77-2.59-12.71-2.59-20.81s1.05-17.25,3.15-26.55c2.1-9.3,4.95-18.52,8.55-27.67,3.6-9.15,8.02-17.85,13.27-26.1,5.25-8.25,11.03-15.56,17.33-21.94,6.3-6.37,13.05-11.44,20.25-15.19,7.2-3.75,14.7-5.62,22.5-5.62,6.75,0,12.34,1.39,16.76,4.16,4.42,2.78,7.87,6.38,10.35,10.8,2.48,4.43,4.24,9.41,5.29,14.96,1.05,5.55,1.57,11.1,1.57,16.65,0,12.3-1.31,23.89-3.94,34.76-2.63,10.88-6.11,20.85-10.46,29.93h0ZM1012.87,121.5c-.23-2.1-.67-4.05-1.35-5.85-.67-1.8-1.73-3.34-3.15-4.61-1.43-1.27-3.34-1.91-5.74-1.91-4.8,0-9.22,1.2-13.27,3.6-4.05,2.4-7.69,5.59-10.91,9.56-3.23,3.98-6.04,8.48-8.44,13.5-2.4,5.03-4.46,10.12-6.19,15.3-1.73,5.17-2.96,10.24-3.71,15.19-.75,4.95-1.13,9.22-1.13,12.82,0,1.65.3,3.38.9,5.18.6,1.8,1.42,3.37,2.47,4.72,1.05,1.35,2.36,2.51,3.94,3.49,1.57.98,3.26,1.46,5.06,1.46,6.75,0,12.75-2.32,18-6.97,5.25-4.65,9.6-10.35,13.05-17.1,3.45-6.75,6.11-13.95,7.99-21.6,1.87-7.65,2.81-14.63,2.81-20.93,0-1.8-.11-3.75-.34-5.85h0ZM904.76,137.36c-1.65,7.58-3.23,14.96-4.73,22.16-1.5,7.2-2.85,14.17-4.05,20.93-1.2,6.75-2.18,12.75-2.92,18,3.75-.3,7.76-.49,12.04-.56,4.28-.07,8.06-.11,11.36-.11.15,2.85.37,5.66.67,8.44.3,2.78.64,5.29,1.01,7.54.37,2.25.67,4.24.9,5.96.22,1.73.41,2.89.56,3.49-1.2,0-2.36-.04-3.49-.11-1.13-.07-2.29-.11-3.49-.11-4.65,0-9.56.15-14.74.45-5.17.3-10.39.75-15.64,1.35-5.25.6-10.39,1.39-15.41,2.36-5.03.98-9.56,2.14-13.61,3.49.9-6.75,1.95-14.25,3.15-22.5,1.2-8.25,2.59-16.8,4.16-25.65,1.57-8.85,3.15-17.78,4.72-26.78,1.58-9,3.19-17.62,4.84-25.87,3.75-19.65,7.72-39.67,11.93-60.07l39.37-5.17c-4.05,17.4-7.95,34.35-11.7,50.85-1.65,7.05-3.3,14.36-4.95,21.94h0Z"/><path class="cls-2" d="M879.97,12.6c-.75,2.85-1.46,5.82-2.14,8.89-.67,3.08-1.24,5.81-1.69,8.21-1.5.15-3.64.26-6.41.34-2.78.08-5.74.15-8.89.23-3.15.08-6.34.11-9.56.11h-8.44l-7.87,40.27c4.65-.3,9-.52,13.05-.67,3.3-.15,6.67-.23,10.13-.23s6-.07,7.65-.23c-.6,4.2-1.16,8.33-1.69,12.37-.53,4.05-1.16,8.18-1.91,12.38-1.5.15-3.94.26-7.31.34-3.38.08-6.79.19-10.24.34-3.9.15-8.18.3-12.83.45l-7.65,41.4,32.85-5.17-2.25,25.65-72.68,11.25,29.48-159.98,71.1-6.07c-1.05,3.3-1.95,6.68-2.7,10.12h0ZM794.24,47.25c-2.4,8.55-4.69,17.18-6.86,25.87-2.18,8.7-4.31,17.1-6.41,25.2-4.8,19.2-9.45,38.93-13.95,59.17l-50.85,8.55,9.9-86.85h-2.7l-22.28,81.68-46.8,8.32,17.1-159.75c7.05-.3,13.69-1.01,19.91-2.14,6.22-1.12,12.41-1.91,18.56-2.36,0,.15-.23,1.69-.68,4.61-.45,2.92-1.05,6.75-1.8,11.47-.75,4.73-1.57,10.05-2.47,15.97-.9,5.93-2.21,14.06-3.94,24.41-1.73,10.35-4.01,24.68-6.86,42.97h3.37c3.9-13.8,7.12-25.09,9.68-33.86,2.55-8.77,4.61-15.9,6.19-21.37,1.57-5.47,3.07-10.76,4.5-15.86,1.42-5.1,2.77-9.82,4.05-14.17,1.27-4.35,2.29-8.02,3.04-11.03h2.03c2.7,0,5.44-.15,8.21-.45,2.77-.3,5.4-.64,7.87-1.01,2.47-.37,5.06-.86,7.76-1.46-.3,1.35-.64,4.13-1.01,8.32-.38,4.2-.86,9.26-1.46,15.19-.6,5.93-1.2,12.45-1.8,19.57-.6,7.13-1.2,14.1-1.8,20.93-.6,6.83-1.16,13.31-1.69,19.46-.53,6.15-1.01,11.4-1.46,15.75h4.05l21.37-96.75c5.1-.75,10.13-1.42,15.07-2.03,4.35-.6,8.85-1.2,13.5-1.8,4.65-.6,8.78-1.27,12.38-2.03-2.25,6.3-4.5,13.31-6.75,21.04-2.25,7.73-4.58,15.86-6.97,24.41h0ZM645.74,111.26c-4.35,9.08-9.41,17.18-15.19,24.3-5.78,7.13-11.81,13.2-18.11,18.23-6.3,5.03-12.68,8.85-19.13,11.47-6.45,2.63-12.6,3.94-18.45,3.94-4.95,0-9.45-.94-13.5-2.81-4.05-1.87-7.58-4.65-10.57-8.33-3-3.67-5.36-8.4-7.09-14.17-1.73-5.77-2.59-12.71-2.59-20.81s1.05-17.25,3.15-26.55c2.1-9.3,4.95-18.52,8.55-27.67,3.6-9.15,8.02-17.85,13.27-26.1,5.25-8.25,11.03-15.56,17.33-21.94,6.3-6.37,13.05-11.44,20.25-15.19,7.2-3.75,14.7-5.63,22.5-5.63,6.75,0,12.34,1.39,16.76,4.16,4.42,2.78,7.87,6.38,10.35,10.8,2.48,4.43,4.24,9.41,5.29,14.96,1.05,5.55,1.58,11.1,1.58,16.65,0,12.3-1.31,23.89-3.94,34.76-2.63,10.88-6.11,20.85-10.46,29.93h0ZM628.53,59.63c-.23-2.1-.67-4.05-1.35-5.85-.67-1.8-1.73-3.34-3.15-4.61-1.43-1.27-3.34-1.91-5.74-1.91-4.8,0-9.23,1.2-13.27,3.6-4.05,2.4-7.69,5.59-10.91,9.56-3.23,3.98-6.04,8.48-8.44,13.5-2.4,5.03-4.46,10.13-6.19,15.3-1.73,5.18-2.96,10.24-3.71,15.19-.75,4.95-1.12,9.23-1.12,12.83,0,1.65.3,3.37.9,5.17.6,1.8,1.42,3.38,2.47,4.73,1.05,1.35,2.36,2.51,3.94,3.49,1.57.98,3.26,1.46,5.06,1.46,6.75,0,12.75-2.32,18-6.98,5.25-4.65,9.6-10.35,13.05-17.1,3.45-6.75,6.11-13.95,7.99-21.6,1.87-7.65,2.81-14.62,2.81-20.92,0-1.8-.11-3.75-.34-5.85h0ZM555.41,27c-.68,3.6-1.32,6.68-1.91,9.23-3.3.9-6.64,1.54-10.01,1.91-3.37.38-6.72.86-10.01,1.46-1.05,5.1-2.18,10.76-3.37,16.99-1.2,6.23-2.36,12.68-3.49,19.35-1.13,6.68-2.22,13.46-3.26,20.36-1.05,6.9-2.1,13.5-3.15,19.8-2.4,14.85-4.65,30.23-6.75,46.13l-40.5,6.3c3.45-16.5,6.75-32.77,9.9-48.83,1.35-6.75,2.7-13.8,4.05-21.15,1.35-7.35,2.66-14.59,3.94-21.71,1.27-7.12,2.4-14.02,3.38-20.7.97-6.67,1.83-12.79,2.59-18.34-3.45-.45-6.94-.6-10.46-.45-3.53.15-7.01-.3-10.46-1.35.15-2.4.23-5.17.23-8.32s.07-6.3.23-9.45c.15-3.45.3-7.12.45-11.03,3.9.3,7.8.53,11.7.68,3.9.15,7.8.22,11.7.22,7.65,0,15.04-.19,22.16-.56,7.12-.37,13.73-.82,19.8-1.35,6.08-.52,12.04-1.16,17.89-1.91l-2.48,12.15c-.75,3.45-1.46,6.97-2.14,10.57h0ZM456.74,42.75c-.45,8.4-.9,17.18-1.35,26.33-.45,9.15-.9,18.15-1.35,27-.75,20.7-1.57,42.68-2.47,65.92-4.5.75-9,1.35-13.5,1.8-3.75.6-7.87,1.28-12.37,2.03-4.5.75-8.55,1.43-12.15,2.03.6-4.95,1.2-9.82,1.8-14.63.45-4.2.86-8.4,1.24-12.6.37-4.2.71-7.8,1.01-10.8h-19.57l-9,32.4c-3.3.45-7.2.94-11.7,1.46-4.5.53-8.7,1.01-12.6,1.46-4.8.6-9.52,1.2-14.18,1.8.55-1.82,1.09-3.63,1.64-5.44-.92-.02-1.83-.05-2.76-.07-3.6-.07-7.13-.11-10.57-.11-4.35,0-8.55.04-12.6.11-4.05.08-8.25.19-12.6.34-1.35-9.75-2.81-19.99-4.39-30.71-1.57-10.72-3.04-20.96-4.39-30.71l-4.05,4.73c-1.05,4.5-2.21,10.05-3.49,16.65-1.28,6.6-2.51,12.98-3.71,19.13-1.35,7.2-2.78,14.63-4.27,22.27l-36.45,5.4c4.5-21,8.7-41.4,12.6-61.2,1.5-8.55,3.07-17.4,4.72-26.55,1.65-9.15,3.19-18.23,4.61-27.23,1.42-9,2.7-17.74,3.83-26.21,1.13-8.47,1.99-16.16,2.59-23.06,3.45.3,7.35.56,11.7.79,4.35.23,8.4.49,12.15.79,4.5.3,9,.45,13.5.45-.15.6-.38,1.73-.68,3.38-.3,1.65-.67,3.64-1.12,5.96-.45,2.33-.94,4.91-1.46,7.76-.53,2.85-1.09,5.7-1.69,8.55-1.2,6.6-2.55,14.03-4.05,22.27l1.35-.23c1.5-2.4,3.64-5.74,6.41-10.01,2.77-4.28,5.66-8.81,8.66-13.61,3-4.8,5.92-9.41,8.78-13.84,2.85-4.42,5.25-8.21,7.2-11.36,7.5-.6,15-1.27,22.5-2.03,7.5-.75,15-1.72,22.5-2.93-7.05,9.45-13.88,18.75-20.48,27.9-2.85,3.9-5.74,7.95-8.66,12.15-2.93,4.2-5.81,8.32-8.66,12.37-2.85,4.05-5.51,7.95-7.99,11.7-2.48,3.75-4.69,7.2-6.64,10.35,3.3,15.15,7.2,29.78,11.7,43.88,3.19,9.99,6.41,20.13,9.68,30.42,4.16-13.81,8.28-27.48,12.37-41,2.4-8.1,4.91-16.57,7.54-25.42,2.62-8.85,5.25-17.66,7.87-26.44,2.62-8.77,5.14-17.21,7.54-25.31,2.4-8.1,4.5-15.53,6.3-22.28,10.2-.75,20.59-1.65,31.16-2.7,10.58-1.05,20.89-2.47,30.94-4.27-.45,4.8-.94,10.76-1.46,17.89-.53,7.13-1.01,14.89-1.46,23.29h0ZM422.54,31.5l-5.17,19.35-13.95,56.47c.6,0,1.69-.04,3.26-.11,1.57-.07,3.22-.15,4.95-.22,1.72-.07,3.34-.15,4.84-.23,1.5-.07,2.55-.19,3.15-.34,0-.9.11-2.44.34-4.61.23-2.17.45-4.65.67-7.42.23-2.77.49-5.81.79-9.11.3-3.3.6-6.53.9-9.68.6-7.65,1.35-15.9,2.25-24.75l1.35-19.57-3.38.22h0ZM255.37,42.75c-.45,8.4-.9,17.18-1.35,26.33-.45,9.15-.9,18.15-1.35,27-.75,20.7-1.57,42.68-2.47,65.92-4.5.75-9,1.35-13.5,1.8-3.75.6-7.88,1.28-12.38,2.03-4.5.75-8.55,1.43-12.15,2.03.6-4.95,1.2-9.82,1.8-14.63.45-4.2.86-8.4,1.24-12.6.37-4.2.71-7.8,1.01-10.8h-19.57l-9,32.4c-3.3.45-7.2.94-11.7,1.46-4.5.53-8.7,1.01-12.6,1.46-4.8.6-9.52,1.2-14.17,1.8.58-1.93,1.16-3.85,1.74-5.77-.93-.05-1.88-.08-2.86-.08-4.65,0-9.56.15-14.74.45-5.17.3-10.39.75-15.64,1.35-5.25.6-10.39,1.39-15.41,2.36-5.03.98-9.56,2.14-13.61,3.49.9-6.75,1.95-14.25,3.15-22.5,1.2-8.25,2.59-16.8,4.16-25.65,1.57-8.85,3.15-17.77,4.72-26.77,1.58-9,3.19-17.62,4.84-25.87,3.75-19.65,7.72-39.67,11.93-60.07l39.37-5.18c-4.05,17.4-7.95,34.35-11.7,50.85-1.65,7.05-3.3,14.36-4.95,21.94-1.65,7.58-3.23,14.96-4.73,22.16-1.5,7.2-2.85,14.17-4.05,20.93-1.2,6.75-2.18,12.75-2.92,18,3.75-.3,7.76-.49,12.04-.56,4.27-.07,8.06-.11,11.36-.11.15,2.85.37,5.66.67,8.44.3,2.78.64,5.29,1.01,7.54.02.11.03.21.05.31,4.49-14.9,8.93-29.63,13.33-44.19,2.4-8.1,4.91-16.57,7.54-25.42,2.62-8.85,5.25-17.66,7.87-26.44,2.62-8.77,5.14-17.21,7.54-25.31,2.4-8.1,4.5-15.53,6.3-22.28,10.2-.75,20.59-1.65,31.16-2.7,10.57-1.05,20.89-2.47,30.94-4.27-.45,4.8-.94,10.76-1.46,17.89-.53,7.13-1.01,14.89-1.46,23.29h0ZM221.17,31.5l-5.17,19.35-13.95,56.47c.6,0,1.69-.04,3.26-.11,1.57-.07,3.22-.15,4.95-.22,1.72-.07,3.34-.15,4.84-.23,1.5-.07,2.55-.19,3.15-.34,0-.9.11-2.44.34-4.61.23-2.17.45-4.65.67-7.42.23-2.77.49-5.81.79-9.11.3-3.3.6-6.53.9-9.68.6-7.65,1.35-15.9,2.25-24.75l1.35-19.57-3.37.22h0ZM88.99,89.66c-5.17,6.07-11.1,10.91-17.77,14.51-6.68,3.6-13.61,5.4-20.81,5.4h-2.47c-1.2,5.1-2.33,10.65-3.38,16.65-1.05,6-1.95,11.55-2.7,16.65-1.05,6-2.02,12-2.92,18L0,168.53c4.5-20.25,8.77-40.05,12.83-59.4,1.65-8.1,3.38-16.65,5.17-25.65,1.8-9,3.52-17.85,5.17-26.55,1.65-8.7,3.22-17.1,4.73-25.2,1.5-8.1,2.77-15.53,3.83-22.27,4.35-1.35,8.62-2.51,12.82-3.49,4.2-.97,8.51-1.84,12.94-2.59,4.42-.75,8.59-1.13,12.49-1.13,6.75,0,12.41,1.13,16.99,3.37,4.57,2.25,8.29,5.29,11.14,9.11,2.85,3.83,4.87,8.29,6.07,13.39,1.2,5.1,1.8,10.57,1.8,16.43,0,8.4-1.54,16.5-4.61,24.3-3.08,7.8-7.2,14.74-12.37,20.81h0ZM70.99,33.75c-2.47-2.85-5.21-4.27-8.21-4.27-1.65,9.9-3.3,19.28-4.95,28.12-1.65,8.85-3.45,18.3-5.4,28.35,2.4-.6,4.91-1.99,7.54-4.16,2.62-2.17,5.06-5.02,7.31-8.55,2.25-3.52,4.05-7.61,5.4-12.26,1.35-4.65,2.03-9.52,2.03-14.63,0-5.55-1.24-9.75-3.71-12.6h0Z"/></g></svg>